<svg width="21" height="24" viewBox="0 0 21 24" xmlns="http://www.w3.org/2000/svg">
<path d="M0 9.39C0 7.77 0.333801 6.235 1.0014 4.785C1.669 3.335 2.62132 2.1 3.85835 1.08L5.06592 2.43C4.02525 3.29 3.21529 4.325 2.63604 5.535C2.0568 6.745 1.76718 8.03 1.76718 9.39H0ZM19.2328 9.39C19.2328 8.03 18.9579 6.745 18.4081 5.535C17.8583 4.325 17.0631 3.29 16.0224 2.43L17.23 1.08C18.4474 2.12 19.3801 3.36 20.028 4.8C20.676 6.24 21 7.77 21 9.39H19.2328ZM1.06031 20.4V18.6H3.53436V9.42C3.53436 7.74 4.02034 6.245 4.99229 4.935C5.96424 3.625 7.24544 2.8 8.8359 2.46V1.59C8.8359 1.13 8.9979 0.75 9.32188 0.45C9.64586 0.15 10.0337 0 10.4853 0C10.9369 0 11.3247 0.15 11.6487 0.45C11.9727 0.75 12.1346 1.13 12.1346 1.59V2.46C13.7251 2.8 15.0112 3.625 15.993 4.935C16.9748 6.245 17.4656 7.74 17.4656 9.42V18.6H19.9102V20.4H1.06031ZM10.4853 24C9.85694 24 9.30715 23.765 8.8359 23.295C8.36466 22.825 8.12903 22.26 8.12903 21.6H12.8415C12.8415 22.26 12.6108 22.825 12.1494 23.295C11.6879 23.765 11.1332 24 10.4853 24ZM5.30154 18.6H15.6985V9.42C15.6985 7.94 15.1978 6.68 14.1964 5.64C13.195 4.6 11.9677 4.08 10.5147 4.08C9.06171 4.08 7.82959 4.6 6.81837 5.64C5.80715 6.68 5.30154 7.94 5.30154 9.42V18.6Z" />
</svg>
