<svg width="24" height="24" viewBox="0 0 24 24" xmlns="http://www.w3.org/2000/svg">
<path d="M15.4667 11.2667C15.0444 11.2667 14.6889 11.1222 14.4 10.8333C14.1111 10.5444 13.9667 10.1889 13.9667 9.76667C13.9667 9.34445 14.1111 8.98889 14.4 8.7C14.6889 8.41111 15.0444 8.26667 15.4667 8.26667C15.8889 8.26667 16.2444 8.41111 16.5333 8.7C16.8222 8.98889 16.9667 9.34445 16.9667 9.76667C16.9667 10.1889 16.8222 10.5444 16.5333 10.8333C16.2444 11.1222 15.8889 11.2667 15.4667 11.2667ZM8.5 11.2667C8.07778 11.2667 7.72222 11.1222 7.43333 10.8333C7.14444 10.5444 7 10.1889 7 9.76667C7 9.34445 7.14444 8.98889 7.43333 8.7C7.72222 8.41111 8.07778 8.26667 8.5 8.26667C8.92222 8.26667 9.27778 8.41111 9.56667 8.7C9.85556 8.98889 10 9.34445 10 9.76667C10 10.1889 9.85556 10.5444 9.56667 10.8333C9.27778 11.1222 8.92222 11.2667 8.5 11.2667ZM12 18.4667C10.7556 18.4667 9.62222 18.1333 8.6 17.4667C7.57778 16.8 6.77778 15.9222 6.2 14.8333H17.8C17.2222 15.9222 16.4222 16.8 15.4 17.4667C14.3778 18.1333 13.2444 18.4667 12 18.4667ZM12 24C10.3556 24 8.80556 23.6833 7.35 23.05C5.89444 22.4167 4.62222 21.5556 3.53333 20.4667C2.44444 19.3778 1.58333 18.1056 0.95 16.65C0.316667 15.1944 0 13.6444 0 12C0 10.3556 0.316667 8.80556 0.95 7.35C1.58333 5.89444 2.44444 4.62222 3.53333 3.53333C4.62222 2.44444 5.89444 1.58333 7.35 0.95C8.80556 0.316667 10.3556 0 12 0C13.6444 0 15.1944 0.316667 16.65 0.95C18.1056 1.58333 19.3778 2.44444 20.4667 3.53333C21.5556 4.62222 22.4167 5.89444 23.05 7.35C23.6833 8.80556 24 10.3556 24 12C24 13.6444 23.6833 15.1944 23.05 16.65C22.4167 18.1056 21.5556 19.3778 20.4667 20.4667C19.3778 21.5556 18.1056 22.4167 16.65 23.05C15.1944 23.6833 13.6444 24 12 24ZM12 22C14.7333 22 17.0833 21.0278 19.05 19.0833C21.0167 17.1389 22 14.8 22 12.0667C22 9.33333 21.0333 6.94444 19.1 4.9C17.1667 2.85556 14.7778 1.83333 11.9333 1.83333H11.3333C11.1778 1.83333 10.9778 1.84444 10.7333 1.86667C10.6889 2.04444 10.65 2.25556 10.6167 2.5C10.5833 2.74444 10.5667 2.95556 10.5667 3.13333C10.5667 3.68889 10.75 4.15 11.1167 4.51667C11.4833 4.88333 11.9444 5.06667 12.5 5.06667C12.7667 5.06667 12.9889 5.05 13.1667 5.01667C13.3444 4.98333 13.5111 4.96667 13.6667 4.96667C13.8889 4.96667 14.0778 5.02222 14.2333 5.13333C14.3889 5.24444 14.4667 5.41111 14.4667 5.63333C14.4667 5.98889 14.3 6.26111 13.9667 6.45C13.6333 6.63889 13.1444 6.73333 12.5 6.73333C11.4778 6.73333 10.6222 6.38889 9.93333 5.7C9.24444 5.01111 8.9 4.15556 8.9 3.13333C8.9 3.02222 8.90556 2.87778 8.91667 2.7C8.92778 2.52222 8.95556 2.37778 9 2.26667C6.97778 3 5.30556 4.22222 3.98333 5.93333C2.66111 7.64444 2 9.64445 2 11.9333C2 14.6667 2.98333 17.0278 4.95 19.0167C6.91667 21.0056 9.26667 22 12 22Z" />
</svg>
