<svg width="22" height="24" viewBox="0 0 22 24" xmlns="http://www.w3.org/2000/svg">
<path d="M2.0625 13.8947C2.0625 15.2211 2.38906 16.4684 3.04219 17.6368C3.69531 18.8053 4.60625 19.7789 5.775 20.5579C5.68333 20.3053 5.61458 20.0474 5.56875 19.7842C5.52292 19.5211 5.5 19.2632 5.5 19.0105C5.5 18.3368 5.6375 17.7053 5.9125 17.1158C6.1875 16.5263 6.58854 15.9895 7.11563 15.5053L11 12L14.8844 15.5053C15.4115 15.9895 15.8125 16.5263 16.0875 17.1158C16.3625 17.7053 16.5 18.3368 16.5 19.0105C16.5 19.2632 16.4771 19.5211 16.4312 19.7842C16.3854 20.0474 16.3167 20.3053 16.225 20.5579C17.3938 19.7789 18.3047 18.8053 18.9578 17.6368C19.6109 16.4684 19.9375 15.2211 19.9375 13.8947C19.9375 12.7579 19.674 11.6474 19.1469 10.5632C18.6198 9.47895 17.8635 8.48421 16.8781 7.57895C16.3969 7.89474 15.8927 8.14211 15.3656 8.32105C14.8385 8.5 14.3115 8.58947 13.7844 8.58947C12.3865 8.58947 11.2292 8.15263 10.3125 7.27895C9.39583 6.40526 8.9375 5.30526 8.9375 3.97895V3.34737C7.88333 4.04211 6.93229 4.81053 6.08437 5.65263C5.23646 6.49474 4.51458 7.37368 3.91875 8.28947C3.32292 9.20526 2.86458 10.1421 2.54375 11.1C2.22292 12.0579 2.0625 12.9895 2.0625 13.8947ZM11 14.6526L8.55937 16.8632C8.23854 17.1579 7.99219 17.4842 7.82031 17.8421C7.64844 18.2 7.5625 18.5895 7.5625 19.0105C7.5625 19.8737 7.89479 20.6053 8.55937 21.2053C9.22396 21.8053 10.0375 22.1053 11 22.1053C11.9625 22.1053 12.776 21.8053 13.4406 21.2053C14.1052 20.6053 14.4375 19.8737 14.4375 19.0105C14.4375 18.5895 14.3516 18.2 14.1797 17.8421C14.0078 17.4842 13.7615 17.1579 13.4406 16.8632L11 14.6526ZM11 0V4.16842C11 4.88421 11.2693 5.48421 11.8078 5.96842C12.3464 6.45263 13.0052 6.69474 13.7844 6.69474C14.1969 6.69474 14.5807 6.61579 14.9359 6.45789C15.2911 6.3 15.6063 6.06316 15.8813 5.74737L16.5 5.05263C18.1958 5.93684 19.5365 7.16842 20.5219 8.74737C21.5073 10.3263 22 12.0421 22 13.8947C22 16.7158 20.9344 19.1053 18.8031 21.0632C16.6719 23.0211 14.0708 24 11 24C7.92917 24 5.32812 23.0211 3.19688 21.0632C1.06563 19.1053 0 16.7158 0 13.8947C0 11.2 0.985417 8.60526 2.95625 6.11053C4.92708 3.61579 7.60833 1.57895 11 0Z" />
</svg>
