<svg width="25" height="24" viewBox="0 0 25 24" xmlns="http://www.w3.org/2000/svg">
<path d="M22.5371 24L14.0688 15.6449L15.9919 13.7476L24.4602 22.1026L22.5371 24ZM2.93522 24L1.01215 22.1026L10.7962 12.4494L7.18623 8.88766L6.41026 9.65326L4.92578 8.18863V11.018L4.11606 11.8169L0 7.75589L0.809717 6.957H3.7112L2.09177 5.35922L6.51147 0.998613C6.89384 0.621359 7.30994 0.366158 7.75978 0.23301C8.20963 0.0998613 8.70445 0.0332871 9.24426 0.0332871C9.78408 0.0332871 10.2789 0.127601 10.7287 0.316227C11.1786 0.504854 11.5947 0.787795 11.9771 1.16505L8.36707 4.72677L9.9865 6.32455L9.17679 7.12344L12.6856 10.5853L16.8016 6.52427C16.6217 6.23578 16.4811 5.90291 16.3799 5.52566C16.2787 5.14841 16.2281 4.74896 16.2281 4.32732C16.2281 3.15118 16.661 2.13592 17.527 1.28155C18.3929 0.427184 19.422 0 20.614 0C20.9514 0 21.2382 0.0332871 21.4744 0.0998613C21.7105 0.166436 21.9073 0.255201 22.0648 0.366158L19.197 3.19556L21.7274 5.69209L24.5951 2.86269C24.7076 3.04022 24.8032 3.25659 24.8819 3.51179C24.9606 3.76699 25 4.06103 25 4.3939C25 5.57004 24.567 6.5853 23.7011 7.43967C22.8351 8.29404 21.8061 8.72122 20.614 8.72122C20.2092 8.72122 19.8605 8.69348 19.5682 8.638C19.2758 8.58252 19.0058 8.49931 18.7584 8.38835L2.93522 24Z" />
</svg>
